HIERARCHY
ROOT Hips
{
 OFFSET 0.000000 0.000000 0.000000
 CHANNELS 6 Xposition Yposition Zposition Yrotation Xrotation Zrotation
 JOINT Chest
 {
  OFFSET 0.000000 9.585900 0.002600
  CHANNELS 3 Yrotation Xrotation Zrotation
  JOINT Chest2
  {
   OFFSET 0.000000 9.601200 -0.005300
   CHANNELS 3 Yrotation Xrotation Zrotation
   JOINT Chest3
   {
    OFFSET 0.000000 9.561800 0.000000
    CHANNELS 3 Yrotation Xrotation Zrotation
    JOINT Chest4
    {
     OFFSET 0.000000 9.552100 0.000000
     CHANNELS 3 Yrotation Xrotation Zrotation
     JOINT Neck
     {
      OFFSET 0.000000 14.453000 0.000000
      CHANNELS 3 Yrotation Xrotation Zrotation
      JOINT Head
      {
       OFFSET 0.000000 8.936500 -0.011300
       CHANNELS 3 Yrotation Xrotation Zrotation
       End Site
       {
        OFFSET 0.000000 17.073600 -0.006000
       }
      }
     }
     JOINT RightCollar
     {
      OFFSET -2.921100 9.558500 0.000000
      CHANNELS 3 Yrotation Xrotation Zrotation
      JOINT RightShoulder
      {
       OFFSET -13.519700 0.000000 0.000000
       CHANNELS 3 Yrotation Xrotation Zrotation
       JOINT RightElbow
       {
        OFFSET 0.000000 -29.696600 0.000000
        CHANNELS 3 Yrotation Xrotation Zrotation
        JOINT RightWrist
        {
         OFFSET 0.000000 -24.004700 0.000000
         CHANNELS 3 Yrotation Xrotation Zrotation
         End Site
         {
          OFFSET 0.000000 -17.728500 0.000000
         }
        }
       }
      }
     }
     JOINT LeftCollar
     {
      OFFSET 2.921100 9.558500 0.000000
      CHANNELS 3 Yrotation Xrotation Zrotation
      JOINT LeftShoulder
      {
       OFFSET 13.519700 0.000000 0.000000
       CHANNELS 3 Yrotation Xrotation Zrotation
       JOINT LeftElbow
       {
        OFFSET 0.000000 -29.696600 0.000000
        CHANNELS 3 Yrotation Xrotation Zrotation
        JOINT LeftWrist
        {
         OFFSET 0.000000 -24.004700 0.000000
         CHANNELS 3 Yrotation Xrotation Zrotation
         End Site
         {
          OFFSET 0.000000 -17.728500 0.000000
         }
        }
       }
      }
     }
    }
   }
  }
 }
 JOINT RightHip
 {
  OFFSET -7.771700 -0.012900 -0.001300
  CHANNELS 3 Yrotation Xrotation Zrotation
  JOINT RightKnee
  {
   OFFSET 0.000000 -40.869800 0.001200
   CHANNELS 3 Yrotation Xrotation Zrotation
   JOINT RightAnkle
   {
    OFFSET 0.000000 -39.717900 0.002100
    CHANNELS 3 Yrotation Xrotation Zrotation
    JOINT RightToe
    {
     OFFSET 0.000000 -4.965400 11.033500
     CHANNELS 3 Yrotation Xrotation Zrotation
     End Site
     {
      OFFSET 0.000000 -1.423100 5.872300
     }
    }
   }
  }
 }
 JOINT LeftHip
 {
  OFFSET 7.771700 -0.012900 -0.001300
  CHANNELS 3 Yrotation Xrotation Zrotation
  JOINT LeftKnee
  {
   OFFSET 0.000000 -40.869800 0.001200
   CHANNELS 3 Yrotation Xrotation Zrotation
   JOINT LeftAnkle
   {
    OFFSET 0.000000 -39.717900 0.002100
    CHANNELS 3 Yrotation Xrotation Zrotation
    JOINT LeftToe
    {
     OFFSET 0.000000 -4.965400 11.033500
     CHANNELS 3 Yrotation Xrotation Zrotation
     End Site
     {
      OFFSET 0.000000 -1.423100 5.872300
     }
    }
   }
  }
 }
}
MOTION
Frames: 12
Frame Time: 0.008333
-74.610455 50.262082 -6.341257 166.187172 -7.927363 -0.545458 2.010780 7.327098 0.889034 0.088552 0.336686 0.008344 0.155095 0.589279 0.014980 1.856146 6.978602 0.281599 2.205813 18.725078 -0.721386 4.272465 -0.965901 -2.022776 4.029900 0.809149 -3.427699 -12.749911 -29.676726 -44.515749 -95.358482 -60.077735 128.661457 -3.465481 -3.150144 -11.873005 -4.196188 -2.838397 5.375061 28.046225 -21.713989 32.021165 71.422128 -56.184090 -111.379536 -1.280112 6.211435 -6.091344 -4.080222 -72.639116 -2.278562 -125.609198 79.282264 -125.050557 -3.320196 -17.078633 1.655751 -0.341311 0.695002 -0.052688 -6.953856 -76.431352 23.903427 121.790943 78.823602 118.064143 -15.834089 -24.141093 0.956619 -0.155824 -0.847227 -0.050884
-74.614923 50.255199 -6.354735 166.155571 -7.957618 -0.574263 2.029372 7.314826 0.981860 0.088318 0.335393 0.010942 0.154688 0.587127 0.019528 1.857343 6.964567 0.335379 2.102307 18.794900 -0.715842 4.079010 -0.840255 -1.977325 3.923820 0.776775 -3.420575 -13.266032 -29.778423 -44.324674 -96.735812 -59.950976 130.174052 -3.389605 -3.095337 -11.693886 -4.138463 -2.714529 5.395461 28.291206 -21.671947 31.958224 71.731199 -56.327249 -111.647397 -1.394640 6.256860 -6.573563 -3.935450 -72.595477 -2.355421 -125.600200 79.271331 -125.005491 -3.339347 -17.112014 1.670306 -0.321455 0.723846 -0.071764 -6.941156 -76.420816 23.907689 121.884587 78.794199 118.202318 -15.801075 -24.149905 0.952159 -0.174006 -0.854848 -0.065775
-74.620429 50.249148 -6.365310 166.133089 -7.987979 -0.600990 2.037516 7.305403 1.073780 0.088105 0.334101 0.013536 0.154268 0.584945 0.024015 1.858724 6.950016 0.389015 1.995915 18.866254 -0.712903 3.881109 -0.711556 -1.935877 3.795391 0.741420 -3.430342 -13.797946 -29.812457 -44.031071 -98.039373 -59.791726 131.626909 -3.310839 -3.039012 -11.473974 -4.080441 -2.600487 5.369422 28.519055 -21.594902 31.888224 71.946995 -56.433994 -111.859608 -1.504324 6.305028 -7.042020 -3.835605 -72.554959 -2.402305 -125.600179 79.263323 -124.982157 -3.352513 -17.139126 1.683987 -0.314620 0.746977 -0.073109 -6.950001 -76.406032 23.924347 121.946176 78.767976 118.299931 -15.775309 -24.158965 0.948088 -0.174811 -0.855460 -0.076742
-74.628073 50.243796 -6.373846 166.114948 -8.021961 -0.615502 2.040939 7.300701 1.154461 0.087863 0.332715 0.016028 0.153810 0.582520 0.028359 1.859931 6.934102 0.441561 1.884985 18.935342 -0.711430 3.675620 -0.587064 -1.896068 3.647298 0.725752 -3.457626 -14.349367 -29.786292 -43.624974 -99.270593 -59.611083 133.012302 -3.232133 -2.982395 -11.218215 -4.019684 -2.477875 5.330821 28.737852 -21.482908 31.776253 72.075292 -56.509747 -112.014290 -1.605350 6.351069 -7.495903 -3.635662 -72.508004 -2.537160 -125.560710 79.253284 -124.921503 -3.368267 -17.169870 1.725349 -0.319073 0.779233 -0.082157 -6.960745 -76.377350 23.946991 121.994215 78.753932 118.369061 -15.813896 -24.173844 0.954976 -0.113388 -0.817173 -0.066704
-74.639227 50.238464 -6.376899 166.067231 -8.037599 -0.608719 2.074327 7.279851 1.216754 0.087737 0.331287 0.018417 0.153581 0.580052 0.032581 1.863541 6.917417 0.492996 1.767386 18.997913 -0.710690 3.458526 -0.474671 -1.855927 3.489033 0.726643 -3.489653 -14.925000 -29.693870 -43.118793 -100.433176 -59.417590 134.325914 -3.153730 -2.925865 -10.930776 -3.961092 -2.348741 5.283708 28.946985 -21.336107 31.623700 72.127072 -56.564456 -112.112585 -1.700158 6.390832 -7.939037 -3.295379 -72.478534 -2.762816 -125.495271 79.255198 -124.866240 -3.321511 -17.254249 1.844021 -0.423951 0.876581 -0.146440 -6.821827 -76.385579 23.829430 122.051164 78.747984 118.481679 -15.807487 -24.115236 0.945213 -0.140703 -0.872828 -0.075235
-74.649673 50.233385 -6.375706 166.058426 -8.047360 -0.612207 2.077559 7.272187 1.252282 0.084018 0.314274 0.050191 0.153856 0.577822 0.036651 1.872534 6.901244 0.542465 1.641611 19.052336 -0.709892 3.226718 -0.377439 -1.813392 3.331406 0.738664 -3.511585 -15.529289 -29.528295 -42.527666 -101.539792 -59.218292 135.573026 -3.074001 -2.868464 -10.620136 -3.908354 -2.218062 5.236474 29.149941 -21.148689 31.426365 72.116270 -56.614281 -112.158811 -1.792969 6.424889 -8.376619 -3.066541 -72.458156 -2.929381 -125.406878 79.251038 -124.763730 -3.335113 -17.277897 1.887464 -0.436502 0.913684 -0.153209 -6.751776 -76.396779 23.748221 122.044901 78.737544 118.513357 -15.805965 -24.105303 0.937855 -0.148416 -0.870591 -0.072859
-74.660155 50.228522 -6.370851 166.041059 -8.053878 -0.614122 2.084664 7.239517 1.329644 0.086781 0.321310 0.037456 0.154597 0.575882 0.040478 1.876861 6.911203 0.534345 1.535562 19.074197 -0.653788 2.981023 -0.291800 -1.770342 3.189461 0.739766 -3.469418 -16.152954 -29.291624 -41.855470 -102.600823 -59.026780 136.751239 -2.994773 -2.811872 -10.292484 -3.851833 -2.107481 5.248553 29.341855 -20.909256 31.175886 72.073273 -56.684681 -112.165075 -1.886019 6.455098 -8.810157 -2.838179 -72.443709 -3.082175 -125.277134 79.245609 -124.626661 -3.346858 -17.290290 1.933309 -0.457728 0.949312 -0.151868 -6.678461 -76.410347 23.666944 122.013102 78.723371 118.514065 -15.779341 -24.098602 0.946776 -0.135298 -0.866417 -0.087675
-74.669241 50.224218 -6.364884 166.017197 -8.073957 -0.619850 2.099353 7.221792 1.412492 0.091349 0.335125 0.009519 0.152880 0.567134 0.059607 1.884177 6.919915 0.524993 1.421556 19.094550 -0.601670 2.726722 -0.215239 -1.733051 3.051964 0.761329 -3.418589 -16.768578 -28.989669 -41.106935 -103.608842 -58.858456 137.838584 -2.916661 -2.759081 -9.948079 -3.790549 -1.993482 5.261405 29.505326 -20.609904 30.867235 72.025156 -56.801497 -112.133744 -1.975466 6.479991 -9.235983 -2.634151 -72.417533 -3.205109 -125.136435 79.234856 -124.472674 -3.360245 -17.300532 1.948354 -0.467192 0.982131 -0.128726 -6.609882 -76.409038 23.603956 121.985625 78.707345 118.514041 -15.752782 -24.096905 0.949812 -0.138304 -0.860814 -0.093956
-74.675901 50.220781 -6.360124 166.008558 -8.122140 -0.635925 2.101149 7.241669 1.491125 0.098369 0.355085 -0.035511 0.150705 0.559278 0.076900 1.911101 6.859790 0.684344 1.236927 19.169101 -0.694800 2.465577 -0.150579 -1.705002 2.896929 0.852632 -3.491660 -17.358813 -28.622725 -40.284401 -104.548187 -58.727347 138.813694 -2.836679 -2.712582 -9.594179 -3.737986 -1.837351 5.134058 29.633698 -20.249250 30.502018 71.981080 -56.983726 -112.056891 -2.053010 6.500676 -9.642588 -2.489136 -72.365976 -3.288330 -125.027799 79.211550 -124.329851 -3.420929 -17.304300 1.959069 -0.406360 0.995478 -0.118012 -6.592089 -76.374321 23.574736 121.946152 78.691617 118.497895 -15.717174 -24.105997 0.952537 -0.157515 -0.847078 -0.105070
-74.691788 50.215789 -6.342948 165.969736 -8.101451 -0.609091 2.128890 7.195696 1.529404 0.094038 0.352544 -0.035058 0.154207 0.554432 0.098510 1.927555 6.853053 0.739659 1.075488 19.209176 -0.737669 2.196561 -0.100515 -1.683783 2.747625 0.916903 -3.510042 -17.920099 -28.193411 -39.381099 -105.406621 -58.643332 139.666228 -2.752267 -2.674314 -9.249919 -3.682186 -1.714787 5.055533 29.731582 -19.824785 30.085820 71.942504 -57.241675 -111.924434 -2.115767 6.518100 -10.015912 -2.228826 -72.390086 -3.446026 -124.768881 79.214470 -124.125348 -3.388043 -17.280303 2.057228 -0.471614 1.014080 -0.171529 -6.455828 -76.421445 23.436381 121.866659 78.678130 118.450782 -15.682153 -24.062051 0.930584 -0.153498 -0.872992 -0.104714
-74.706571 50.211958 -6.330377 165.922414 -8.125524 -0.578642 2.168867 7.195242 1.566468 0.091384 0.334381 0.015297 0.157573 0.567893 0.070657 1.940359 6.860478 0.764298 0.922671 19.230552 -0.754055 1.921821 -0.063892 -1.665759 2.587252 0.974098 -3.496630 -18.448243 -27.708365 -38.391049 -106.169664 -58.611711 140.385373 -2.663445 -2.642273 -8.935222 -3.637067 -1.613635 5.000710 29.799335 -19.329475 29.629155 71.905216 -57.578120 -111.719616 -2.163988 6.527179 -10.346135 -1.975953 -72.370009 -3.593335 -124.530890 79.208868 -123.926420 -3.391741 -17.264940 2.122547 -0.501674 1.038292 -0.185994 -6.302077 -76.417192 23.295859 121.823766 78.650738 118.417875 -15.656428 -24.030888 0.934939 -0.144499 -0.898638 -0.115081
-74.720745 50.208066 -6.313995 165.908355 -8.142540 -0.560437 2.180732 7.188387 1.607580 0.091118 0.328838 0.033008 0.159696 0.575707 0.058184 1.954449 6.864620 0.803467 0.768264 19.245740 -0.771276 1.644513 -0.038565 -1.649000 2.409435 1.032420 -3.474012 -18.939396 -27.167874 -37.315672 -106.816340 -58.642568 140.952245 -2.577017 -2.619522 -8.661858 -3.607310 -1.524696 4.937882 29.835407 -18.761806 29.153151 71.851490 -57.983275 -111.424423 -2.198404 6.525095 -10.612098 -1.809825 -72.357345 -3.688526 -124.294530 79.194834 -123.727519 -3.394212 -17.253129 2.157161 -0.523319 1.059943 -0.177356 -6.230047 -76.413381 23.207962 121.727131 78.646960 118.327861 -15.646152 -23.998140 0.936117 -0.178345 -0.908029 -0.114485
